<svg width="800" height="800" viewBox="0 0 800 800" fill="none" xmlns="http://www.w3.org/2000/svg">
<path d="M666.177 71.7094C652.163 71.8579 635.067 78.8454 617.099 86.4438C577.827 103.05 568.936 122.405 557.802 144.464C571.055 150.77 582.396 160.511 591.75 172.217C605.3 189.167 615.341 210.284 623.705 233.694C638.647 275.513 648.189 324.997 657.842 371.475L702.861 377.123C702.861 377.123 762.267 332.972 765.705 302.139C766.721 293.014 751.221 278.714 751.221 278.714C751.221 278.714 760.497 268.38 758.767 261.022C756.811 252.7 742.549 237.967 742.549 237.967C742.549 237.967 746.766 228.084 742.703 222.064C737.285 214.033 713.047 208.67 713.047 208.67C710.338 206.03 710.585 195.239 713.038 192.597C713.038 192.597 736.125 172.461 730.074 164.966C719.08 151.35 700.96 134.302 700.96 134.302C700.553 85.8798 686.658 71.4923 666.177 71.7094ZM506.177 163.678C431.646 164.117 398.005 275.775 357.977 298.781C290.027 336.016 186.866 280.87 131.097 333.227C73.7347 387.081 56.7331 440.673 81.0237 545.148L51.4347 633.172C39.7425 691.403 29.4191 681.233 36.6487 728.292C96.0409 726.777 155.289 725.745 214.599 728.292L218.761 702.728L178.103 677.392C181.45 656.503 187.53 628.917 210.071 596.206C232.611 563.497 244.019 539.352 244.189 520.092L272.311 520.339C272.069 547.753 259.172 574.006 242.963 598.824C316.768 622.814 429.249 610.808 513.291 525.386C498.51 479.808 479.405 434.68 454.986 400.824L477.796 384.37C533.535 464.756 563.749 591.25 580.863 675.424C571.032 678.613 562.772 681.589 553.566 685.739C554.094 699.942 555.196 714.114 556.144 728.292C604.852 724.973 653.355 727.164 702.413 728.292C729.36 621.988 686.382 544.141 641.85 435.183C609.277 320.352 613.108 183.114 526.035 165.658C519.102 164.267 512.492 163.641 506.175 163.678H506.177ZM521.989 553.909C513.521 562.186 503.167 570.094 491.35 577.811C483.417 582.991 474.789 588.011 465.613 592.786L444.328 691.125L427.289 698.791L425.585 728.292H527.324L524.621 667.941L547.694 657.538C541.433 627.892 532.463 590.353 521.989 553.909ZM229.913 620.659L254.358 728.292H399.53L397.119 699.206L358.569 690.17L351.444 629.999C310.717 636.139 268.35 634.766 229.913 620.659Z" fill="#FDF6E4"/>
</svg>
